<svg width="560" height="560" xmlns="http://www.w3.org/2000/svg">
 <g>
  <title>background</title>
  <rect fill="none" id="canvas_background" height="562" width="562" y="-1" x="-1"/>
 </g>

 <g>
  <title>Layer 1</title>
  <g stroke="null" id="surface1">
   <path stroke="null" id="svg_15" fill-rule="nonzero" fill="#e3f6f5" d="m421.96521,76l-241.09394,0c-3.3851,0 -6.12878,2.78966 -6.12878,6.23461c0,3.44182 2.74368,6.2346 6.12878,6.2346l241.09394,0c10.29341,0 18.66562,8.51251 18.66562,18.97841l0,297.39809c0,3.44183 2.74367,6.2346 6.13184,6.2346c3.38511,0 6.13185,-2.79277 6.13185,-6.2346l0,-297.39809c-0.00306,-17.34019 -13.87491,-31.44762 -30.92931,-31.44762l0,0zm0,0"/>
   <path stroke="null" id="svg_16" fill-rule="nonzero" fill="#e3f6f5" d="m446.76267,424.79457c-3.38817,0 -6.13184,2.78966 -6.13184,6.23461l0,22.52633c0,10.46277 -8.37221,18.9784 -18.66562,18.9784l-279.03897,0c-10.29033,0 -18.66561,-8.51563 -18.66561,-18.9784l0,-346.10789c0,-10.4659 8.37528,-18.97841 18.66561,-18.97841l11.58238,0c3.3851,0 6.13185,-2.79278 6.13185,-6.2346c0,-3.44495 -2.74675,-6.23461 -6.13185,-6.23461l-11.58238,0c-17.05132,0 -30.92624,14.10743 -30.92624,31.44762l0,346.10789c0,17.33706 13.87492,31.44449 30.92624,31.44449l279.03897,0c17.0544,0 30.92625,-14.10743 30.92625,-31.44449l0,-22.52633c0,-3.44495 -2.74369,-6.23461 -6.12879,-6.23461l0,0zm0,0"/>
   <path stroke="null" id="svg_17" fill-rule="nonzero" fill="#e3f6f5" d="m197.33335,116.23161c-25.65678,0 -46.53207,21.22511 -46.53207,47.31184c0,26.08985 20.87529,47.31496 46.53207,47.31496c25.65985,0 46.53514,-21.22511 46.53514,-47.31496c0,-26.08673 -20.87529,-47.31184 -46.53514,-47.31184zm0,82.1576c-18.89579,0 -34.27144,-15.6302 -34.27144,-34.84264c0,-19.21556 15.37565,-34.84575 34.27144,-34.84575c18.89578,0 34.27144,15.63019 34.27144,34.84575c0,19.21244 -15.37566,34.84264 -34.27144,34.84264zm0,0"/>
   <path stroke="null" id="svg_18" fill-rule="nonzero" fill="#e3f6f5" d="m272.45308,140.3275l133.64851,0c3.38509,0 6.13185,-2.79277 6.13185,-6.23459c0,-3.44495 -2.74676,-6.23461 -6.13185,-6.23461l-133.64851,0c-3.38509,0 -6.12878,2.78966 -6.12878,6.23461c0,3.44182 2.74369,6.23459 6.12878,6.23459zm0,0"/>
   <path stroke="null" id="svg_19" fill-rule="nonzero" fill="#e3f6f5" d="m272.45308,169.77805l96.7408,0c3.38817,0 6.13184,-2.78966 6.13184,-6.2346c0,-3.44183 -2.74367,-6.2346 -6.13184,-6.2346l-96.7408,0c-3.38509,0 -6.12878,2.79277 -6.12878,6.2346c0,3.44494 2.74369,6.2346 6.12878,6.2346zm0,0"/>
   <path stroke="null" id="svg_20" fill-rule="nonzero" fill="#e3f6f5" d="m272.45308,199.23172l116.66163,0c3.3851,0 6.12878,-2.79278 6.12878,-6.2346c0,-3.44495 -2.74368,-6.23461 -6.12878,-6.23461l-116.66163,0c-3.38509,0 -6.12878,2.78966 -6.12878,6.23461c0,3.44182 2.74369,6.2346 6.12878,6.2346zm0,0"/>
   <path stroke="null" id="svg_21" fill-rule="nonzero" fill="#e3f6f5" d="m272.45308,257.37767l133.64851,0c3.38509,0 6.13185,-2.79278 6.13185,-6.2346c0,-3.44495 -2.74676,-6.23461 -6.13185,-6.23461l-133.64851,0c-3.38509,0 -6.12878,2.78966 -6.12878,6.23461c0,3.44182 2.74369,6.2346 6.12878,6.2346zm0,0"/>
   <path stroke="null" id="svg_22" fill-rule="nonzero" fill="#e3f6f5" d="m272.45308,286.82822l96.7408,0c3.38817,0 6.13184,-2.78966 6.13184,-6.23461c0,-3.44183 -2.74367,-6.2346 -6.13184,-6.2346l-96.7408,0c-3.38509,0 -6.12878,2.79277 -6.12878,6.2346c0,3.44495 2.74369,6.23461 6.12878,6.23461zm0,0"/>
   <path stroke="null" id="svg_23" fill-rule="nonzero" fill="#e3f6f5" d="m272.45308,316.28188l116.66163,0c3.3851,0 6.12878,-2.79277 6.12878,-6.2346c0,-3.44182 -2.74368,-6.23461 -6.12878,-6.23461l-116.66163,0c-3.38509,0 -6.12878,2.79279 -6.12878,6.23461c0,3.44183 2.74369,6.2346 6.12878,6.2346zm0,0"/>
   <path stroke="null" id="svg_24" fill-rule="nonzero" fill="#e3f6f5" d="m197.33335,350.33193c-25.65678,0 -46.53207,21.22511 -46.53207,47.31185c0,26.08985 20.87529,47.31496 46.53207,47.31496c25.65985,0 46.53514,-21.22511 46.53514,-47.31496c0,-26.08674 -20.87529,-47.31185 -46.53514,-47.31185zm0,82.15761c-18.89579,0 -34.27144,-15.6302 -34.27144,-34.84577c0,-19.21244 15.37565,-34.84263 34.27144,-34.84263c18.89578,0 34.27144,15.63019 34.27144,34.84263c0,19.21557 -15.37566,34.84577 -34.27144,34.84577zm0,0"/>
   <path stroke="null" id="svg_25" fill-rule="nonzero" fill="#e3f6f5" d="m272.45308,374.42783l133.64851,0c3.38509,0 6.13185,-2.79277 6.13185,-6.2346c0,-3.44183 -2.74676,-6.2346 -6.13185,-6.2346l-133.64851,0c-3.38509,0 -6.12878,2.79277 -6.12878,6.2346c0,3.44183 2.74369,6.2346 6.12878,6.2346zm0,0"/>
   <path stroke="null" id="svg_26" fill-rule="nonzero" fill="#e3f6f5" d="m272.45308,403.87838l96.7408,0c3.38817,0 6.13184,-2.78966 6.13184,-6.2346c0,-3.44183 -2.74367,-6.23149 -6.13184,-6.23149l-96.7408,0c-3.38509,0 -6.12878,2.78966 -6.12878,6.23149c0,3.44494 2.74369,6.2346 6.12878,6.2346zm0,0"/>
   <path stroke="null" id="svg_27" fill-rule="nonzero" fill="#e3f6f5" d="m272.45308,433.33204l116.66163,0c3.3851,0 6.12878,-2.79277 6.12878,-6.23459c0,-3.44495 -2.74368,-6.23461 -6.12878,-6.23461l-116.66163,0c-3.38509,0 -6.12878,2.78966 -6.12878,6.23461c0,3.44182 2.74369,6.23459 6.12878,6.23459zm0,0"/>
   <path stroke="null" id="svg_28" fill-rule="nonzero" fill="#e3f6f5" d="m188.88748,270.97959c-2.39381,-2.43393 -6.27916,-2.43393 -8.67297,0c-2.39382,2.43393 -2.39382,6.38126 0,8.8152l15.12399,15.37744c1.19998,1.21696 2.76824,1.82544 4.33649,1.82544c1.56825,0 3.13958,-0.60848 4.33648,-1.82544l31.63519,-32.16532c0.03068,-0.0312 0.05831,-0.06241 0.089,-0.09049l21.00418,-21.35617c2.39382,-2.43393 2.39382,-6.38126 0,-8.8152c-2.39381,-2.43392 -6.27915,-2.43392 -8.67297,0l-16.03856,16.31045c-8.75583,-9.98847 -21.26812,-15.77373 -34.69496,-15.77373c-25.65678,0 -46.53207,21.22511 -46.53207,47.31496c0,26.08673 20.87529,47.31185 46.53207,47.31185c25.65985,0 46.53514,-21.22512 46.53514,-47.31185c0,-3.44495 -2.74675,-6.2346 -6.13185,-6.2346c-3.38817,0 -6.13185,2.78965 -6.13185,6.2346c0,19.21245 -15.37566,34.84264 -34.27144,34.84264c-18.89579,0 -34.27144,-15.63019 -34.27144,-34.84264c0,-19.21556 15.37565,-34.84576 34.27144,-34.84576c10.12153,0 19.528,4.47157 25.99437,12.14781l-23.65273,24.05222l-10.78751,-10.97141l0,0zm0,0"/>
  </g>
 </g>
</svg>