<svg width="512" height="512" xmlns="http://www.w3.org/2000/svg">

 <g>
  <title>background</title>
  <rect fill="none" id="canvas_background" height="402" width="582" y="-1" x="-1"/>
 </g>
 <g>
  <title>Layer 1</title>
  <g stroke="null" id="surface1">
   <path stroke="null" id="svg_1" fill-rule="nonzero" fill="#ffffff" d="m449.573726,221.214531l-75.004999,-72.054934c-1.553234,-1.494141 -3.659807,-2.331482 -5.853749,-2.331482l-17.936612,0l21.321366,-20.510193c3.235903,-3.112793 3.235903,-8.15863 0,-11.268311l-63.116291,-60.715029c-3.235903,-3.112793 -8.481302,-3.112793 -11.717205,0l-26.20758,25.213623l-70.031417,67.363955c-0.372128,-0.049805 -0.747494,-0.084046 -1.132566,-0.084046l-55.751376,0c-2.200414,0 -4.306987,0.840455 -5.860221,2.337708l-74.856148,72.051821l0,0.003113c-1.498223,1.441223 -2.426928,3.43341 -2.426928,5.634155l0,225.176338c0,4.40149 3.708345,7.96875 8.283912,7.96875l374.436065,0c4.575568,0 8.283912,-3.56726 8.283912,-7.96875l0,-80.711611c0,-4.40149 -3.708345,-7.96875 -8.283912,-7.96875c-4.575567,0 -8.283912,3.56726 -8.283912,7.96875l0,72.742861l-357.86824,0l0,-209.238838l357.86824,0l0,72.742862c0,4.401489 3.708345,7.96875 8.283912,7.96875c4.575568,0 8.283912,-3.567261 8.283912,-7.96875l0,-80.711612c0,-2.203857 -0.93194,-4.196045 -2.430163,-5.640381zm-166.801101,-130.398014l20.353831,-19.579469l51.399086,49.446718l-64.630694,62.171817l-68.212839,0l-17.295902,-16.634766l78.386519,-75.404299zm-193.500539,128.069645l58.301267,-56.120546l37.640026,0c-1.485279,2.966492 -0.957827,6.630249 1.598537,9.089356l11.438918,11.000611l-26.116975,0c-4.575568,0 -8.283912,3.570373 -8.283912,7.96875c0,4.401489 3.708345,7.96875 8.283912,7.96875l168.732936,0c4.575568,0 8.283912,-3.567261 8.283912,-7.96875c0,-4.398377 -3.708345,-7.96875 -8.283912,-7.96875l-27.544008,0l20.887755,-20.089967l31.074378,0l58.414525,56.120546l-334.427359,0zm0,0"/>
   <path stroke="null" id="svg_2" fill-rule="nonzero" fill="#ffffff" d="m183.6019,339.441525c0,38.667115 32.702037,70.128115 72.898427,70.128115c40.19639,0 72.898427,-31.461 72.898427,-70.128115c0,-38.664003 -32.702037,-70.125002 -72.898427,-70.125002c-40.19639,0 -72.898427,31.457886 -72.898427,70.125002zm129.22903,0c0,29.8797 -25.269168,54.190614 -56.330603,54.190614c-31.058199,0 -56.330603,-24.310914 -56.330603,-54.190614c0,-29.876588 25.272403,-54.187502 56.330603,-54.187502c31.061435,0 56.330603,24.307801 56.330603,54.187502zm0,0"/>
   <path stroke="null" id="svg_3" fill-rule="nonzero" fill="#ffffff" d="m236.667476,330.131161c-3.235903,-3.112793 -8.481303,-3.112793 -11.717206,0c-3.232667,3.112793 -3.232667,8.15863 0,11.268311l18.176069,17.481446c1.617952,1.556397 3.737468,2.334594 5.856984,2.334594c2.119517,0 4.239034,-0.778198 5.856985,-2.334594l33.210075,-31.946595c3.235903,-3.10968 3.235903,-8.155518 0,-11.268311c-3.235903,-3.112793 -8.481303,-3.112793 -11.71397,0l-27.353089,26.31244l-12.315847,-11.84729zm0,0"/>
   <path stroke="null" id="svg_4" fill-rule="nonzero" fill="#ffffff" d="m443.719977,331.469661c-2.180998,0 -4.316694,0.852906 -5.856984,2.337708c-1.54029,1.48169 -2.426928,3.536133 -2.426928,5.631042c0,2.104248 0.886638,4.152466 2.426928,5.643494c1.54029,1.48169 3.675986,2.325257 5.856984,2.325257c2.177763,0 4.31346,-0.843566 5.856985,-2.325257c1.54029,-1.491027 2.426927,-3.545471 2.426927,-5.643494c0,-2.09491 -0.886637,-4.143128 -2.426927,-5.631042c-1.543526,-1.484802 -3.679223,-2.337708 -5.856985,-2.337708zm0,0"/>
  </g>
 </g>
</svg>