<svg width="512" height="512" xmlns="http://www.w3.org/2000/svg">

 <g>
  <title>background</title>
  <rect fill="none" id="canvas_background" height="562" width="562" y="-1" x="-1"/>
 </g>
 <g>
  <title>Layer 1</title>
  <g id="surface1">
   <path id="svg_1" fill-rule="nonzero" fill="#ffffff" d="m129.375,190.484375c37.945312,0 68.820312,-30.871094 68.820312,-68.816406c0,-37.945313 -30.875,-68.816407 -68.820312,-68.816407c-37.945312,0 -68.816406,30.871094 -68.816406,68.816407c0,37.945312 30.871094,68.816406 68.816406,68.816406zm0,-121.117187c28.839844,0 52.300781,23.464843 52.300781,52.300781c0,28.839843 -23.460937,52.300781 -52.300781,52.300781c-28.835938,0 -52.300781,-23.460938 -52.300781,-52.300781c0,-28.835938 23.464843,-52.300781 52.300781,-52.300781zm0,0"/>
   <path id="svg_2" fill-rule="nonzero" fill="#ffffff" d="m311.054688,190.484375c37.945312,0 68.816406,-30.871094 68.816406,-68.816406c0,-37.945313 -30.871094,-68.816407 -68.816406,-68.816407c-37.945313,0 -68.816407,30.871094 -68.816407,68.816407c0,37.945312 30.871094,68.816406 68.816407,68.816406zm0,-121.117187c28.835937,0 52.300781,23.464843 52.300781,52.300781c0,28.839843 -23.464844,52.300781 -52.300781,52.300781c-28.839844,0 -52.300782,-23.460938 -52.300782,-52.300781c0,-28.835938 23.460938,-52.300781 52.300782,-52.300781zm0,0"/>
   <path id="svg_3" fill-rule="nonzero" fill="#ffffff" d="m400.414062,282.847656c1.625,2.105469 4.070313,3.207032 6.539063,3.207032c1.761719,0 3.539063,-0.5625 5.042969,-1.722657c3.609375,-2.789062 4.273437,-7.976562 1.484375,-11.585937c-24.714844,-31.984375 -62.050781,-50.328125 -102.425781,-50.328125c-25.925782,0 -50.941407,7.640625 -72.339844,22.097656c-3.78125,2.554687 -4.773438,7.6875 -2.222656,11.464844c2.554687,3.78125 7.6875,4.777343 11.464843,2.222656c18.660157,-12.605469 40.480469,-19.269531 63.097657,-19.269531c35.222656,0 67.792968,16.003906 89.359374,43.914062zm0,0"/>
   <path id="svg_4" fill-rule="nonzero" fill="#ffffff" d="m129.375,222.417969c-71.335938,0 -129.375,58.035156 -129.375,129.375c0,4.5625 3.699219,8.257812 8.257812,8.257812c4.5625,0 8.257813,-3.695312 8.257813,-8.257812c0,-62.230469 50.628906,-112.859375 112.859375,-112.859375c62.234375,0 112.863281,50.628906 112.863281,112.859375c0,4.5625 3.695313,8.257812 8.257813,8.257812c4.558594,0 8.257812,-3.695312 8.257812,-8.257812c0,-71.339844 -58.039062,-129.375 -129.378906,-129.375zm0,0"/>
   <path id="svg_5" fill-rule="nonzero" fill="#ffffff" d="m432.171875,299.492188c-44.015625,0 -79.828125,35.8125 -79.828125,79.828124c0,44.019532 35.8125,79.828126 79.828125,79.828126c44.019531,0 79.828125,-35.808594 79.828125,-79.828126c0,-44.015624 -35.808594,-79.828124 -79.828125,-79.828124zm0,143.140624c-34.910156,0 -63.3125,-28.402343 -63.3125,-63.3125c0,-34.910156 28.402344,-63.3125 63.3125,-63.3125c34.910156,0 63.3125,28.402344 63.3125,63.3125c0,34.910157 -28.402344,63.3125 -63.3125,63.3125zm0,0"/>
   <path id="svg_6" fill-rule="nonzero" fill="#ffffff" d="m459.699219,371.0625l-19.269531,0l0,-19.269531c0,-4.5625 -3.695313,-8.257813 -8.257813,-8.257813c-4.558594,0 -8.257813,3.695313 -8.257813,8.257813l0,19.269531l-19.269531,0c-4.558593,0 -8.257812,3.695312 -8.257812,8.257812c0,4.5625 3.699219,8.257813 8.257812,8.257813l19.269531,0l0,19.269531c0,4.5625 3.699219,8.257813 8.257813,8.257813c4.5625,0 8.257813,-3.695313 8.257813,-8.257813l0,-19.269531l19.269531,0c4.558593,0 8.257812,-3.695313 8.257812,-8.257813c0,-4.5625 -3.699219,-8.257812 -8.257812,-8.257812zm0,0"/>
  </g>
 </g>
</svg>