<svg width="512" height="512" xmlns="http://www.w3.org/2000/svg">

 <g>
  <title>background</title>
  <rect fill="none" id="canvas_background" height="514" width="514" y="-1" x="-1"/>
 </g>
 <g>
  <title>Layer 1</title>
  <g stroke="null" id="svg_1">
   <g stroke="null" id="svg_2">
    <g stroke="null" id="svg_3">
     <path fill="#ffffff" stroke="null" id="svg_4" d="m312.999758,78.00001c-70.026611,0 -127.000251,54.880118 -127.000251,122.333569c0,8.033859 0.907107,16.277023 2.69751,24.55746l-14.185553,6.831791c-2.279303,1.097416 -3.875484,3.188312 -4.28625,5.61467c-0.410766,2.426357 0.418951,4.890705 2.224981,6.630371l10.263188,9.886062l-7.937748,7.646072l-12.588627,0c-4.387453,0 -7.937748,3.419838 -7.937748,7.646072l0,12.126052l-11.223873,10.811447l-12.587883,0c-4.387453,0 -7.937748,3.419838 -7.937748,7.646072l0,12.126052l-11.223873,10.81073l-12.588627,0c-4.387453,0 -7.937748,3.419838 -7.937748,7.646072l0,12.126052l-29.424065,28.342864c-1.488281,1.433594 -2.32544,3.37468 -2.32544,5.406082l0,61.166426c0,4.226234 3.550295,7.646072 7.937748,7.646072l63.499754,0c2.10815,0 4.124027,-0.806396 5.612309,-2.23999l121.387942,-116.927487l10.263188,9.886062c1.798588,1.739666 4.364385,2.553947 6.883301,2.143223c2.518916,-0.395672 4.689574,-1.933918 5.828854,-4.12875l7.092404,-13.664298c80.762328,16.216812 152.49451,-44.24787 152.49451,-119.73518c0,-67.453451 -56.972896,-122.333569 -127.000251,-122.333569zm-27.819698,225.850503c-3.596432,-0.880943 -7.402711,0.761955 -9.077028,3.987541l-4.968627,9.564937l-8.085088,-7.787998c-3.100834,-2.986892 -8.123783,-2.986892 -11.223873,0l-124.674812,120.093579l-52.27588,0l0,-50.354979l29.424809,-28.343581c1.488281,-1.433594 2.32544,-3.37468 2.32544,-5.406082l0,-7.646072l7.937748,0c2.10815,0 4.124027,-0.806396 5.612309,-2.23999l15.874752,-15.291427c1.488281,-1.433594 2.32544,-3.37468 2.32544,-5.406082l0,-7.645355l7.937748,0c2.10815,0 4.124027,-0.806396 5.612309,-2.23999l15.874752,-15.291427c1.488281,-1.433594 2.32544,-3.37468 2.32544,-5.406082l0,-7.646072l7.937004,0c2.10815,0 4.124027,-0.806396 5.612309,-2.23999l15.874752,-15.291427c3.100834,-2.986892 3.100834,-7.825271 0,-10.811447l-8.085088,-7.787998l9.929813,-4.786053c3.348633,-1.612793 5.06983,-5.256271 4.139654,-8.743488c-2.425898,-9.079666 -3.65894,-18.091953 -3.65894,-26.79745c0,-59.02392 49.849982,-107.041425 111.124755,-107.041425s111.124755,48.018221 111.124755,107.041425c0.000744,67.729418 -65.615345,121.705655 -138.944453,103.516935z"/>
     <path fill="#ffffff" stroke="null" id="svg_5" d="m352.687755,123.875009c-21.8822,0 -39.687253,17.150798 -39.687253,38.228927s17.805053,38.228927 39.687253,38.228927s39.687253,-17.150082 39.687253,-38.228927s-17.805053,-38.228927 -39.687253,-38.228927zm0,61.166426c-13.131106,0 -23.812501,-10.288902 -23.812501,-22.937499c0,-12.648597 10.681395,-22.937499 23.812501,-22.937499s23.812501,10.288902 23.812501,22.937499c0,12.648597 -10.681395,22.937499 -23.812501,22.937499z"/>
     <path fill="#ffffff" stroke="null" id="svg_6" d="m220.075195,279.031423l-111.124755,107.042142c-3.100834,2.986892 -3.100834,7.825271 0,10.811447c1.550045,1.493088 3.581549,2.23999 5.612309,2.23999c2.03076,0 4.06152,-0.746902 5.612309,-2.23999l111.124755,-107.041425c3.100834,-2.986892 3.100834,-7.825271 0,-10.811447c-3.100834,-2.986892 -8.123783,-2.986892 -11.224617,-0.000717z"/>
    </g>
   </g>
  </g>
  <g id="svg_7"/>
  <g id="svg_8"/>
  <g id="svg_9"/>
  <g id="svg_10"/>
  <g id="svg_11"/>
  <g id="svg_12"/>
  <g id="svg_13"/>
  <g id="svg_14"/>
  <g id="svg_15"/>
  <g id="svg_16"/>
  <g id="svg_17"/>
  <g id="svg_18"/>
  <g id="svg_19"/>
  <g id="svg_20"/>
  <g id="svg_21"/>
 </g>
</svg>