<svg width="560" height="560" xmlns="http://www.w3.org/2000/svg">
 <g>
  <title>background</title>
  <rect x="-1" y="-1" width="562" height="562" id="canvas_background" fill="none"/>
 </g>

 <g>
  <title>Layer 1</title>
  <g id="surface1" stroke="null">
   <path d="m421.965208,76l-241.093936,0c-3.385104,0 -6.128778,2.78966 -6.128778,6.234606c0,3.441823 2.743674,6.234606 6.128778,6.234606l241.093936,0c10.293408,0 18.665621,8.512512 18.665621,18.978407l0,297.398095c0,3.441823 2.743674,6.234598 6.131842,6.234598c3.385104,0 6.13185,-2.792775 6.13185,-6.234598l0,-297.398095c-0.003064,-17.340186 -13.874912,-31.447619 -30.929312,-31.447619l-0.000001,0zm0,0" fill="#ffffff" fill-rule="nonzero" id="svg_15" stroke="null"/>
   <path d="m446.76267,424.794569c-3.388168,0 -6.131842,2.78966 -6.131842,6.234606l0,22.52633c0,10.462779 -8.372213,18.978407 -18.665621,18.978407l-279.038968,0c-10.290328,0 -18.665613,-8.515628 -18.665613,-18.978407l0,-346.107886c0,-10.465895 8.375284,-18.978407 18.665613,-18.978407l11.582381,0c3.385096,0 6.13185,-2.792783 6.13185,-6.234606c0,-3.444946 -2.746754,-6.234606 -6.13185,-6.234606l-11.582381,0c-17.05132,0 -30.92624,14.107433 -30.92624,31.447619l0,346.107886c0,17.337063 13.87492,31.444495 30.92624,31.444495l279.038968,0c17.0544,0 30.926248,-14.107432 30.926248,-31.444495l0,-22.52633c0,-3.444946 -2.743682,-6.234606 -6.128786,-6.234606l0.000001,0zm0,0" fill="#ffffff" fill-rule="nonzero" id="svg_16" stroke="null"/>
   <path d="m197.333346,116.231605c-25.65678,0 -46.532068,21.225111 -46.532068,47.311842c0,26.089854 20.875288,47.314965 46.532068,47.314965c25.659852,0 46.53514,-21.225111 46.53514,-47.314965c0,-26.086731 -20.875288,-47.311842 -46.53514,-47.311842zm0,82.157603c-18.895788,0 -34.27144,-15.630199 -34.27144,-34.842638c0,-19.215563 15.375652,-34.845754 34.27144,-34.845754c18.895788,0 34.271448,15.630191 34.271448,34.845754c0,19.212439 -15.37566,34.842638 -34.271448,34.842638zm0,0" fill="#ffffff" fill-rule="nonzero" id="svg_17" stroke="null"/>
   <path d="m272.453083,140.327504l133.648505,0c3.385096,0 6.13185,-2.792775 6.13185,-6.234598c0,-3.444946 -2.746754,-6.234606 -6.13185,-6.234606l-133.648505,0c-3.385096,0 -6.128778,2.78966 -6.128778,6.234606c0,3.441823 2.743682,6.234598 6.128778,6.234598zm0,0" fill="#ffffff" fill-rule="nonzero" id="svg_18" stroke="null"/>
   <path d="m272.453083,169.778052l96.740799,0c3.388168,0 6.131842,-2.78966 6.131842,-6.234606c0,-3.441823 -2.743674,-6.234598 -6.131842,-6.234598l-96.740799,0c-3.385096,0 -6.128778,2.792775 -6.128778,6.234598c0,3.444946 2.743682,6.234606 6.128778,6.234606zm0,0" fill="#ffffff" fill-rule="nonzero" id="svg_19" stroke="null"/>
   <path d="m272.453083,199.231724l116.661625,0c3.385104,0 6.128786,-2.792783 6.128786,-6.234606c0,-3.444946 -2.743682,-6.234606 -6.128786,-6.234606l-116.661625,0c-3.385096,0 -6.128778,2.78966 -6.128778,6.234606c0,3.441823 2.743682,6.234606 6.128778,6.234606zm0,0" fill="#ffffff" fill-rule="nonzero" id="svg_20" stroke="null"/>
   <path d="m272.453083,257.377672l133.648505,0c3.385096,0 6.13185,-2.792783 6.13185,-6.234606c0,-3.444946 -2.746754,-6.234606 -6.13185,-6.234606l-133.648505,0c-3.385096,0 -6.128778,2.78966 -6.128778,6.234606c0,3.441823 2.743682,6.234606 6.128778,6.234606zm0,0" fill="#ffffff" fill-rule="nonzero" id="svg_21" stroke="null"/>
   <path d="m272.453083,286.828221l96.740799,0c3.388168,0 6.131842,-2.78966 6.131842,-6.234606c0,-3.441831 -2.743674,-6.234606 -6.131842,-6.234606l-96.740799,0c-3.385096,0 -6.128778,2.792775 -6.128778,6.234606c0,3.444946 2.743682,6.234606 6.128778,6.234606zm0,0" fill="#ffffff" fill-rule="nonzero" id="svg_22" stroke="null"/>
   <path d="m272.453083,316.281884l116.661625,0c3.385104,0 6.128786,-2.792775 6.128786,-6.234606c0,-3.441823 -2.743682,-6.234606 -6.128786,-6.234606l-116.661625,0c-3.385096,0 -6.128778,2.792783 -6.128778,6.234606c0,3.441831 2.743682,6.234606 6.128778,6.234606zm0,0" fill="#ffffff" fill-rule="nonzero" id="svg_23" stroke="null"/>
   <path d="m197.333346,350.331933c-25.65678,0 -46.532068,21.225111 -46.532068,47.311842c0,26.089854 20.875288,47.314965 46.532068,47.314965c25.659852,0 46.53514,-21.225111 46.53514,-47.314965c0,-26.086731 -20.875288,-47.311842 -46.53514,-47.311842zm0,82.157603c-18.895788,0 -34.27144,-15.630199 -34.27144,-34.845762c0,-19.212439 15.375652,-34.842638 34.27144,-34.842638c18.895788,0 34.271448,15.630199 34.271448,34.842638c0,19.215563 -15.37566,34.845762 -34.271448,34.845762zm0,0" fill="#ffffff" fill-rule="nonzero" id="svg_24" stroke="null"/>
   <path d="m272.453083,374.427833l133.648505,0c3.385096,0 6.13185,-2.792775 6.13185,-6.234606c0,-3.441823 -2.746754,-6.234598 -6.13185,-6.234598l-133.648505,0c-3.385096,0 -6.128778,2.792775 -6.128778,6.234598c0,3.441831 2.743682,6.234606 6.128778,6.234606zm0,0" fill="#ffffff" fill-rule="nonzero" id="svg_25" stroke="null"/>
   <path d="m272.453083,403.878381l96.740799,0c3.388168,0 6.131842,-2.78966 6.131842,-6.234606c0,-3.441823 -2.743674,-6.231482 -6.131842,-6.231482l-96.740799,0c-3.385096,0 -6.128778,2.78966 -6.128778,6.231482c0,3.444946 2.743682,6.234606 6.128778,6.234606zm0,0" fill="#ffffff" fill-rule="nonzero" id="svg_26" stroke="null"/>
   <path d="m272.453083,433.332045l116.661625,0c3.385104,0 6.128786,-2.792775 6.128786,-6.234598c0,-3.444946 -2.743682,-6.234606 -6.128786,-6.234606l-116.661625,0c-3.385096,0 -6.128778,2.78966 -6.128778,6.234606c0,3.441823 2.743682,6.234598 6.128778,6.234598zm0,0" fill="#ffffff" fill-rule="nonzero" id="svg_27" stroke="null"/>
   <path d="m188.887477,270.97959c-2.393811,-2.433925 -6.279161,-2.433925 -8.672972,0c-2.393818,2.433933 -2.393818,6.381263 0,8.815196l15.123997,15.377441c1.199973,1.216967 2.768234,1.825442 4.336486,1.825442c1.568252,0 3.139577,-0.608475 4.336486,-1.825442l31.635182,-32.165318c0.030688,-0.031202 0.058312,-0.062404 0.089,-0.090491l21.004183,-21.356167c2.393818,-2.433933 2.393818,-6.381263 0,-8.815196c-2.393811,-2.433925 -6.279154,-2.433925 -8.672972,0l-16.038555,16.310449c-8.755836,-9.988475 -21.268119,-15.773732 -34.694967,-15.773732c-25.65678,0 -46.532068,21.225111 -46.532068,47.314957c0,26.086731 20.875288,47.31185 46.532068,47.31185c25.659852,0 46.53514,-21.225119 46.53514,-47.31185c0,-3.444946 -2.746746,-6.234598 -6.13185,-6.234598c-3.388168,0 -6.131842,2.789652 -6.131842,6.234598c0,19.212447 -15.37566,34.842638 -34.271448,34.842638c-18.895788,0 -34.27144,-15.630191 -34.27144,-34.842638c0,-19.215555 15.375652,-34.845754 34.27144,-34.845754c10.121537,0 19.528003,4.471568 25.994372,12.147803l-23.652729,24.05222l-10.787511,-10.971409l0,0.000001zm0,0" fill="#ffffff" fill-rule="nonzero" id="svg_28" stroke="null"/>
  </g>
 </g>
</svg>