<svg width="512" height="512" xmlns="http://www.w3.org/2000/svg">

 <g>
  <title>background</title>
  <rect fill="none" id="canvas_background" height="562" width="562" y="-1" x="-1"/>
 </g>
 <g>
  <title>Layer 1</title>
  <g stroke="null" id="surface1">
   <path stroke="null" id="svg_1" fill-rule="nonzero" fill="#edae74" d="m440.484291,235.5c14.845779,-10.539062 24.678497,-28.0625 24.678497,-47.816406c0,-32.316406 -25.881478,-58.453125 -57.882294,-58.453125c-32.000816,0 -57.882294,26.136719 -57.882294,58.453125c0,19.753906 9.728279,37.277344 24.674629,47.816406c-12.737664,4.457031 -24.376786,11.34375 -34.205635,20.261719c-13.542228,-11.652344 -29.494286,-20.566407 -46.951035,-25.835938c21.170128,-12.964843 35.412483,-36.570312 35.412483,-63.417969c0,-40.925781 -32.801514,-74.054687 -73.331497,-74.054687c-40.526116,0 -73.331498,33.230469 -73.331498,74.054687c0,26.847657 14.145653,50.453126 35.412483,63.417969c-17.255607,5.269531 -33.002655,14.082031 -46.444313,25.53125c-9.832717,-8.714843 -21.266831,-15.5 -33.80722,-19.855469c14.84578,-10.539062 24.678497,-28.0625 24.678497,-47.816406c0,-32.316406 -25.881478,-58.457031 -57.886162,-58.457031c-32.000816,0 -57.882294,26.140625 -57.882294,58.457031c0,19.753906 9.732147,37.277344 24.678497,47.816406c-39.825989,13.878907 -68.415138,52.070313 -68.415138,96.949219l0,6.683594c0,0.203125 0.201141,0.40625 0.402283,0.40625l122.684623,0c-0.700126,5.574219 -1.102409,11.347656 -1.102409,17.121094l0,6.890625c0,29.78125 23.873932,53.894531 53.368217,53.894531l155.490006,0c29.494285,0 53.368217,-24.113281 53.368217,-53.894531l0,-6.890625c0,-5.773438 -0.398415,-11.546875 -1.102409,-17.121094l123.489189,0c0.201141,0 0.402283,-0.203125 0.402283,-0.40625l0,-6.683594c-0.201141,-44.980469 -28.68972,-83.171875 -68.515709,-97.050781zm-75.037331,-47.917969c0,-23.300781 18.760299,-42.246093 41.833534,-42.246093c23.073234,0 41.829666,18.945312 41.829666,42.246093c0,22.996094 -18.358016,41.738281 -41.028968,42.242188c-0.301713,0 -0.502854,0 -0.800698,0c-0.301713,0 -0.502854,0 -0.804565,0c-22.771523,-0.402344 -41.028969,-19.144531 -41.028969,-42.242188zm-167.929825,-21.074219c0,-31.910156 25.680336,-57.84375 57.27887,-57.84375c31.602402,0 57.282738,25.933594 57.282738,57.84375c0,30.796876 -23.974503,56.023438 -53.971642,57.746094c-1.102409,0 -2.204818,0 -3.311096,0c-1.102409,0 -2.204818,0 -3.307227,0c-29.997139,-1.722656 -53.971642,-26.949218 -53.971642,-57.746094zm-136.029578,21.074219c0,-23.300781 18.760299,-42.246093 41.833533,-42.246093c23.073235,0 41.829667,18.945312 41.829667,42.246093c0,22.996094 -18.358016,41.738281 -41.028969,42.242188c-0.301712,0 -0.502853,0 -0.800698,0c-0.301712,0 -0.502853,0 -0.804565,0c-22.670952,-0.402344 -41.028968,-19.144531 -41.028968,-42.242188zm66.411461,135.75l-109.649117,0c4.514076,-43.15625 40.630554,-76.992187 84.467767,-77.296875c0.20114,0 0.402283,0 0.603423,0c0.201142,0 0.398415,0 0.599556,0c20.868416,0.101563 39.92656,7.902344 54.671769,20.5625c-14.443497,15.804688 -25.177482,35.257813 -30.693398,56.734375zm242.06202,40.320313c0,20.765625 -16.752754,37.683594 -37.319458,37.683594l-155.490006,0c-20.562836,0 -37.31559,-16.917969 -37.31559,-37.683594l0,-6.890625c0,-62.910157 49.755409,-114.375 111.652795,-116.199219c1.102409,0.101562 2.305389,0.101562 3.407799,0.101562c1.106277,0 2.309257,0 3.411667,-0.101562c61.897384,1.824219 111.652794,53.289062 111.652794,116.199219l0,6.890625zm11.936965,-40.320313c-5.515914,-21.375 -16.048759,-40.523437 -30.395553,-56.328125c14.845779,-12.964844 34.108932,-20.765625 55.174622,-20.96875c0.201141,0 0.402283,0 0.603424,0c0.197273,0 0.398415,0 0.599555,0c43.84108,0.304688 79.95369,34.140625 84.467767,77.296875l-110.449814,0zm0,0"/>
  </g>
 </g>
</svg>