<svg width="512" height="512" xmlns="http://www.w3.org/2000/svg">
 <g>
  <title>background</title>
  <rect x="-1" y="-1" width="514" height="514" id="canvas_background" fill="none"/>
 </g>

 <g>
  <title>Layer 1</title>
  <g id="surface1" stroke="null">
   <path d="m449.57373,221.21453l-75.005,-72.05493c-1.55324,-1.49414 -3.65981,-2.33149 -5.85375,-2.33149l-17.93661,0l21.32136,-20.51019c3.23591,-3.11279 3.23591,-8.15863 0,-11.26831l-63.11629,-60.71503c-3.2359,-3.11279 -8.4813,-3.11279 -11.7172,0l-26.20758,25.21362l-70.03142,67.36396c-0.37213,-0.0498 -0.74749,-0.08405 -1.13257,-0.08405l-55.75137,0c-2.20042,0 -4.30699,0.84046 -5.86022,2.33771l-74.85615,72.05182l0,0.00312c-1.49822,1.44122 -2.42693,3.43341 -2.42693,5.63415l0,225.17634c0,4.40149 3.70835,7.96875 8.28391,7.96875l374.43607,0c4.57557,0 8.28391,-3.56726 8.28391,-7.96875l0,-80.71161c0,-4.40149 -3.70835,-7.96875 -8.28391,-7.96875c-4.57557,0 -8.28391,3.56726 -8.28391,7.96875l0,72.74286l-357.86824,0l0,-209.23884l357.86824,0l0,72.74286c0,4.40149 3.70834,7.96875 8.28391,7.96875c4.57557,0 8.28391,-3.56726 8.28391,-7.96875l0,-80.71161c0,-2.20386 -0.93194,-4.19604 -2.43016,-5.64038zm-166.8011,-130.39801l20.35383,-19.57947l51.39908,49.44672l-64.63069,62.17181l-68.21284,0l-17.2959,-16.63476l78.38652,-75.4043zm-193.50054,128.06964l58.30126,-56.12054l37.64003,0c-1.48528,2.96649 -0.95783,6.63025 1.59854,9.08935l11.43891,11.00061l-26.11697,0c-4.57557,0 -8.28391,3.57038 -8.28391,7.96875c0,4.40149 3.70834,7.96875 8.28391,7.96875l168.73294,0c4.57556,0 8.28391,-3.56726 8.28391,-7.96875c0,-4.39837 -3.70835,-7.96875 -8.28391,-7.96875l-27.54401,0l20.88775,-20.08996l31.07438,0l58.41453,56.12054l-334.42736,0zm0,0" fill="#edae74" fill-rule="nonzero" id="svg_1" stroke="null"/>
   <path d="m183.6019,339.44153c0,38.66711 32.70204,70.12811 72.89843,70.12811c40.19639,0 72.89842,-31.461 72.89842,-70.12811c0,-38.66401 -32.70203,-70.12501 -72.89842,-70.12501c-40.19639,0 -72.89843,31.45789 -72.89843,70.12501zm129.22903,0c0,29.8797 -25.26917,54.19061 -56.3306,54.19061c-31.0582,0 -56.33061,-24.31092 -56.33061,-54.19061c0,-29.87659 25.27241,-54.18751 56.33061,-54.18751c31.06143,0 56.3306,24.3078 56.3306,54.18751zm0,0" fill="#edae74" fill-rule="nonzero" id="svg_2" stroke="null"/>
   <path d="m236.66748,330.13116c-3.23591,-3.11279 -8.48131,-3.11279 -11.71721,0c-3.23267,3.11279 -3.23267,8.15863 0,11.26831l18.17607,17.48145c1.61795,1.5564 3.73747,2.33459 5.85698,2.33459c2.11952,0 4.23904,-0.7782 5.85699,-2.33459l33.21007,-31.9466c3.23591,-3.10968 3.23591,-8.15551 0,-11.26831c-3.2359,-3.11279 -8.4813,-3.11279 -11.71397,0l-27.35309,26.31244l-12.31584,-11.84729zm0,0" fill="#edae74" fill-rule="nonzero" id="svg_3" stroke="null"/>
   <path d="m443.71998,331.46966c-2.181,0 -4.3167,0.85291 -5.85699,2.33771c-1.54029,1.48169 -2.42693,3.53613 -2.42693,5.63104c0,2.10425 0.88664,4.15247 2.42693,5.64349c1.54029,1.48169 3.67599,2.32526 5.85699,2.32526c2.17776,0 4.31346,-0.84356 5.85698,-2.32526c1.54029,-1.49102 2.42693,-3.54547 2.42693,-5.64349c0,-2.09491 -0.88664,-4.14313 -2.42693,-5.63104c-1.54352,-1.4848 -3.67922,-2.33771 -5.85698,-2.33771zm0,0" fill="#edae74" fill-rule="nonzero" id="svg_4" stroke="null"/>
  </g>
 </g>
</svg>